<svg width="111" height="17" viewBox="0 0 111 17" fill="none" xmlns="http://www.w3.org/2000/svg">
<path d="M9.85865 0.533677L11.8867 4.59618C12.0277 4.87873 12.3004 5.07452 12.6158 5.11975L17.1509 5.77125C17.9453 5.88546 18.2622 6.85029 17.6876 7.40389L14.4061 10.5661C14.178 10.786 14.0738 11.103 14.1278 11.4134L14.9023 15.8786C15.0381 16.6606 14.2077 17.2568 13.4973 16.8879L9.44119 14.7799C9.15913 14.6334 8.82194 14.6334 8.53988 14.7799L4.48381 16.8879C3.77341 17.2572 2.943 16.6606 3.07877 15.8786L3.85331 11.4134C3.90732 11.103 3.80304 10.786 3.575 10.5661L0.293456 7.40389C-0.281161 6.84992 0.0357789 5.88509 0.83019 5.77125L5.36524 5.11975C5.68068 5.07452 5.95336 4.87873 6.09439 4.59618L8.12242 0.533677C8.47725 -0.177892 9.50346 -0.177892 9.85865 0.533677Z" fill="#F1574B"/>
<path d="M9.85865 0.533677L11.8867 4.59618C12.0277 4.87873 12.3004 5.07452 12.6158 5.11975L17.1509 5.77125C17.9453 5.88546 18.2622 6.85029 17.6876 7.40389L14.4061 10.5661C14.178 10.786 14.0738 11.103 14.1278 11.4134L14.9023 15.8786C15.0381 16.6606 14.2077 17.2568 13.4973 16.8879L9.44119 14.7799C9.15913 14.6334 8.82194 14.6334 8.53988 14.7799L4.48381 16.8879C3.77341 17.2572 2.943 16.6606 3.07877 15.8786L3.85331 11.4134C3.90732 11.103 3.80304 10.786 3.575 10.5661L0.293456 7.40389C-0.281161 6.84992 0.0357789 5.88509 0.83019 5.77125L5.36524 5.11975C5.68068 5.07452 5.95336 4.87873 6.09439 4.59618L8.12242 0.533677C8.47725 -0.177892 9.50346 -0.177892 9.85865 0.533677Z" transform="translate(69.7642)" fill="#F1574B"/>
<path d="M9.85865 0.533677L11.8867 4.59618C12.0277 4.87873 12.3004 5.07452 12.6158 5.11975L17.1509 5.77125C17.9453 5.88546 18.2622 6.85029 17.6876 7.40389L14.4061 10.5661C14.178 10.786 14.0738 11.103 14.1278 11.4134L14.9023 15.8786C15.0381 16.6606 14.2077 17.2568 13.4973 16.8879L9.44119 14.7799C9.15913 14.6334 8.82194 14.6334 8.53988 14.7799L4.48381 16.8879C3.77341 17.2572 2.943 16.6606 3.07877 15.8786L3.85331 11.4134C3.90732 11.103 3.80304 10.786 3.575 10.5661L0.293456 7.40389C-0.281161 6.84992 0.0357789 5.88509 0.83019 5.77125L5.36524 5.11975C5.68068 5.07452 5.95336 4.87873 6.09439 4.59618L8.12242 0.533677C8.47725 -0.177892 9.50346 -0.177892 9.85865 0.533677Z" transform="translate(93.0189)" fill="#F1574B"/>
<path d="M9.85865 0.533677L11.8867 4.59618C12.0277 4.87873 12.3004 5.07452 12.6158 5.11975L17.1509 5.77125C17.9453 5.88546 18.2622 6.85029 17.6876 7.40389L14.4061 10.5661C14.178 10.786 14.0738 11.103 14.1278 11.4134L14.9023 15.8786C15.0381 16.6606 14.2077 17.2568 13.4973 16.8879L9.44119 14.7799C9.15913 14.6334 8.82194 14.6334 8.53988 14.7799L4.48381 16.8879C3.77341 17.2572 2.943 16.6606 3.07877 15.8786L3.85331 11.4134C3.90732 11.103 3.80304 10.786 3.575 10.5661L0.293456 7.40389C-0.281161 6.84992 0.0357789 5.88509 0.83019 5.77125L5.36524 5.11975C5.68068 5.07452 5.95336 4.87873 6.09439 4.59618L8.12242 0.533677C8.47725 -0.177892 9.50346 -0.177892 9.85865 0.533677Z" transform="translate(46.5095)" fill="#F1574B"/>
<path d="M9.85865 0.533677L11.8867 4.59618C12.0277 4.87873 12.3004 5.07452 12.6158 5.11975L17.1509 5.77125C17.9453 5.88546 18.2622 6.85029 17.6876 7.40389L14.4061 10.5661C14.178 10.786 14.0738 11.103 14.1278 11.4134L14.9023 15.8786C15.0381 16.6606 14.2077 17.2568 13.4973 16.8879L9.44119 14.7799C9.15913 14.6334 8.82194 14.6334 8.53988 14.7799L4.48381 16.8879C3.77341 17.2572 2.943 16.6606 3.07877 15.8786L3.85331 11.4134C3.90732 11.103 3.80304 10.786 3.575 10.5661L0.293456 7.40389C-0.281161 6.84992 0.0357789 5.88509 0.83019 5.77125L5.36524 5.11975C5.68068 5.07452 5.95336 4.87873 6.09439 4.59618L8.12242 0.533677C8.47725 -0.177892 9.50346 -0.177892 9.85865 0.533677Z" transform="translate(23.2546)" fill="#F1574B"/>
</svg>
